<svg width="180" height="45" viewBox="0 0 180 45" fill="none" xmlns="http://www.w3.org/2000/svg">
<path d="M14.5328 14.4004L14.5331 14.4001C16.7999 12.1534 19.7781 11.0359 22.757 11.0359C25.7358 11.0359 28.714 12.1534 30.9808 14.4001L30.9814 14.4006C33.2603 16.6354 34.3938 19.5714 34.3938 22.5081C34.3938 25.4323 33.2483 28.3688 30.9808 30.6161C28.714 32.8628 25.7358 33.9803 22.757 33.9803C19.7905 33.9803 16.7999 32.851 14.5328 30.6158L14.5325 30.6156C12.2536 28.3808 11.1201 25.4448 11.1201 22.5081C11.1201 19.5837 12.2657 16.6354 14.5328 14.4004ZM29.5665 29.2212L29.5668 29.221C31.4449 27.3573 32.3842 24.9447 32.3842 22.5081C32.3842 20.0717 31.445 17.6468 29.5665 15.7949L29.5662 15.7946C27.6758 13.9431 25.2286 13.017 22.757 13.017C20.2856 13.017 17.8259 13.943 15.9474 15.7949L15.9471 15.7952C14.069 17.6589 13.1297 20.0715 13.1297 22.5081C13.1297 24.9445 14.0689 27.3694 15.9474 29.2212L15.9477 29.2216C17.8381 31.073 20.2853 31.9992 22.757 31.9992C25.2283 31.9992 27.688 31.0732 29.5665 29.2212Z" fill="url(#paint0_linear_15_306)"/>
<path d="M41.5339 16.1326L41.5334 16.1313C41.3508 15.623 41.6292 15.0582 42.1603 14.876C42.6797 14.7057 43.2501 14.9727 43.4224 15.5034L43.4233 15.506C44.2111 17.7645 44.6111 20.1305 44.6111 22.4964C44.6111 28.0055 42.4778 33.538 38.2112 37.7442C33.9446 41.9504 28.3448 44.0536 22.7568 44.0536C17.1687 44.0536 11.5689 41.9504 7.30229 37.7442C3.03566 33.538 0.902344 28.0174 0.902344 22.5085C0.902344 16.9874 3.03571 11.467 7.30216 7.27283C11.5688 3.05469 17.1687 0.951294 22.7689 0.951294C25.1205 0.951294 27.4599 1.32174 29.7145 2.06264C30.2422 2.23251 30.5255 2.79663 30.352 3.32071C30.1797 3.84077 29.608 4.11935 29.0766 3.94855C27.0272 3.27114 24.9042 2.9324 22.7689 2.9324C17.6882 2.9324 12.6072 4.84407 8.72907 8.66731C4.85105 12.4904 2.91188 17.4876 2.91188 22.4964C2.91188 27.5053 4.85105 32.5025 8.72907 36.3256C12.6071 40.1487 17.6759 42.0605 22.7568 42.0605C27.8371 42.0483 32.9061 40.1489 36.7843 36.3258C40.6746 32.5025 42.6014 27.5055 42.6015 22.4851C42.6139 20.3307 42.2455 18.189 41.5339 16.1326Z" fill="url(#paint1_linear_15_306)"/>
<path d="M36.0372 9.50406L36.0176 9.4347L35.9473 9.41551L30.6406 7.96351L35.9473 6.51155L36.0175 6.49231L36.0371 6.42298L37.5099 1.20251L38.9828 6.42298L39.0023 6.49226L39.0725 6.51153L44.368 7.96351L39.0725 9.41551L39.0023 9.43478L38.9827 9.50406L37.5099 14.7356L36.0372 9.50406Z" fill="url(#paint2_linear_15_306)"/>
<path d="M53.8504 13.5785H55.353V19.9069H53.8504V13.5785ZM54.6077 12.5356C54.3352 12.5356 54.1068 12.4527 53.9225 12.2868C53.7382 12.113 53.646 11.8997 53.646 11.6468C53.646 11.3941 53.7382 11.1847 53.9225 11.0188C54.1068 10.8449 54.3352 10.7581 54.6077 10.7581C54.8802 10.7581 55.1086 10.841 55.2929 11.0069C55.4773 11.1649 55.5694 11.3664 55.5694 11.6113C55.5694 11.872 55.4773 12.0933 55.2929 12.275C55.1166 12.4488 54.8882 12.5356 54.6077 12.5356ZM60.9315 11.6113C61.6607 11.6113 62.2938 11.7298 62.8308 11.9669C63.3757 12.2038 63.7925 12.5435 64.081 12.986C64.3694 13.4284 64.5137 13.9538 64.5137 14.5622C64.5137 15.1626 64.3694 15.688 64.081 16.1384C63.7925 16.5808 63.3757 16.9205 62.8308 17.1575C62.2938 17.3945 61.6607 17.5131 60.9315 17.5131H59.0321V19.9069H57.4694V11.6113H60.9315ZM60.8593 16.2094C61.5405 16.2094 62.0574 16.0672 62.41 15.7828C62.7627 15.4984 62.939 15.0915 62.939 14.5622C62.939 14.0329 62.7627 13.6259 62.41 13.3416C62.0574 13.0571 61.5405 12.9149 60.8593 12.9149H59.0321V16.2094H60.8593ZM69.6898 13.5075C70.4992 13.5075 71.1483 13.7405 71.6371 14.2067C72.1261 14.6728 72.3705 15.3641 72.3705 16.2806V19.9069H70.8679V16.4702C70.8679 15.9171 70.7356 15.5023 70.4712 15.2258C70.2067 14.9414 69.83 14.7992 69.3411 14.7992C68.7882 14.7992 68.3515 14.9651 68.0308 15.2969C67.7103 15.6209 67.55 16.0909 67.55 16.7071V19.9069H66.0474V11.1136H67.55V14.3133C67.7985 14.0526 68.103 13.8551 68.4636 13.7208C68.8323 13.5785 69.241 13.5075 69.6898 13.5075ZM77.2203 19.9899C76.5712 19.9899 75.9861 19.8516 75.4653 19.5751C74.9444 19.2985 74.5356 18.9154 74.2391 18.4255C73.9506 17.9278 73.8063 17.3669 73.8063 16.7427C73.8063 16.1186 73.9506 15.5616 74.2391 15.0718C74.5356 14.582 74.9444 14.1988 75.4653 13.9222C75.9861 13.6457 76.5712 13.5075 77.2203 13.5075C77.8774 13.5075 78.4665 13.6457 78.9874 13.9222C79.5083 14.1988 79.913 14.582 80.2015 15.0718C80.498 15.5616 80.6463 16.1186 80.6463 16.7427C80.6463 17.3669 80.498 17.9278 80.2015 18.4255C79.913 18.9154 79.5083 19.2985 78.9874 19.5751C78.4665 19.8516 77.8774 19.9899 77.2203 19.9899ZM77.2203 18.7218C77.7733 18.7218 78.2301 18.5401 78.5907 18.1767C78.9513 17.8133 79.1317 17.3353 79.1317 16.7427C79.1317 16.1502 78.9513 15.6722 78.5907 15.3087C78.2301 14.9453 77.7733 14.7637 77.2203 14.7637C76.6674 14.7637 76.2106 14.9453 75.85 15.3087C75.4973 15.6722 75.321 16.1502 75.321 16.7427C75.321 17.3353 75.4973 17.8133 75.85 18.1767C76.2106 18.5401 76.6674 18.7218 77.2203 18.7218ZM85.7255 13.5075C86.5354 13.5075 87.1839 13.7405 87.6731 14.2067C88.1614 14.6728 88.406 15.3641 88.406 16.2806V19.9069H86.904V16.4702C86.904 15.9171 86.7713 15.5023 86.5069 15.2258C86.2425 14.9414 85.8657 14.7992 85.3769 14.7992C84.824 14.7992 84.3872 14.9651 84.0666 15.2969C83.746 15.6209 83.5858 16.0909 83.5858 16.7071V19.9069H82.0832V13.5785H83.5137V14.3963C83.7621 14.1039 84.0747 13.8828 84.4513 13.7326C84.8279 13.5825 85.2527 13.5075 85.7255 13.5075ZM96.4052 16.7783C96.4052 16.8809 96.3975 17.0272 96.382 17.2167H91.3445C91.4332 17.6829 91.6615 18.0543 92.0301 18.3307C92.4065 18.5993 92.8715 18.7337 93.4244 18.7337C94.1298 18.7337 94.7103 18.5045 95.1676 18.0464L95.9729 18.9588C95.6843 19.2985 95.32 19.5553 94.8791 19.7291C94.4381 19.903 93.9412 19.9899 93.3883 19.9899C92.6829 19.9899 92.062 19.8516 91.5254 19.5751C90.988 19.2985 90.5711 18.9154 90.2749 18.4255C89.9864 17.9278 89.8425 17.3669 89.8425 16.7427C89.8425 16.1265 89.982 15.5735 90.2628 15.0836C90.5513 14.5859 90.9484 14.1988 91.4531 13.9222C91.9577 13.6457 92.527 13.5075 93.16 13.5075C93.7853 13.5075 94.3417 13.6457 94.8309 13.9222C95.3278 14.1909 95.7128 14.5741 95.9849 15.0718C96.2657 15.5616 96.4052 16.1305 96.4052 16.7783ZM93.16 14.6925C92.6795 14.6925 92.2704 14.8347 91.9336 15.1192C91.6055 15.3957 91.4048 15.767 91.3325 16.2331H94.9747C94.9109 15.7749 94.7146 15.4036 94.3865 15.1192C94.0575 14.8347 93.6484 14.6925 93.16 14.6925ZM57.4567 26.0452C58.186 26.0452 58.8191 26.1638 59.356 26.4008C59.901 26.6378 60.3176 26.9775 60.6061 27.4199C60.8947 27.8624 61.0389 28.3878 61.0389 28.9961C61.0389 29.5966 60.8947 30.122 60.6061 30.5723C60.3176 31.0148 59.901 31.3545 59.356 31.5914C58.8191 31.8285 58.186 31.947 57.4567 31.947H55.5574V34.3409H53.9946V26.0452H57.4567ZM57.3846 30.6434C58.0657 30.6434 58.5826 30.5012 58.9352 30.2167C59.2878 29.9324 59.4641 29.5254 59.4641 28.9961C59.4641 28.4668 59.2878 28.0599 58.9352 27.7755C58.5826 27.4911 58.0657 27.3489 57.3846 27.3489H55.5574V30.6434H57.3846ZM66.215 27.9414C67.0244 27.9414 67.6735 28.1745 68.1623 28.6406C68.6512 29.1068 68.8956 29.7981 68.8956 30.7145V34.3409H67.393V30.9041C67.393 30.3511 67.2608 29.9363 66.9963 29.6598C66.7319 29.3753 66.3552 29.2332 65.8664 29.2332C65.3134 29.2332 64.8766 29.3991 64.5561 29.7309C64.2355 30.0548 64.0752 30.5249 64.0752 31.1411V34.3409H62.5726V25.5475H64.0752V28.7473C64.3237 28.4865 64.6282 28.289 64.9888 28.1547C65.3574 28.0125 65.7662 27.9414 66.215 27.9414ZM73.7455 34.4238C73.0964 34.4238 72.5114 34.2856 71.9905 34.009C71.4695 33.7325 71.0609 33.3493 70.7643 32.8595C70.4758 32.3618 70.3316 31.8008 70.3316 31.1767C70.3316 30.5525 70.4758 29.9956 70.7643 29.5057C71.0609 29.0159 71.4695 28.6327 71.9905 28.3562C72.5114 28.0797 73.0964 27.9414 73.7455 27.9414C74.4027 27.9414 74.9917 28.0797 75.5126 28.3562C76.0335 28.6327 76.4382 29.0159 76.7267 29.5057C77.0233 29.9956 77.1715 30.5525 77.1715 31.1767C77.1715 31.8008 77.0233 32.3618 76.7267 32.8595C76.4382 33.3493 76.0335 33.7325 75.5126 34.009C74.9917 34.2856 74.4027 34.4238 73.7455 34.4238ZM73.7455 33.1557C74.2985 33.1557 74.7553 32.974 75.1159 32.6107C75.4765 32.2473 75.6569 31.7692 75.6569 31.1767C75.6569 30.5841 75.4765 30.1062 75.1159 29.7427C74.7553 29.3793 74.2985 29.1976 73.7455 29.1976C73.1925 29.1976 72.7357 29.3793 72.3751 29.7427C72.0225 30.1062 71.8462 30.5841 71.8462 31.1767C71.8462 31.7692 72.0225 32.2473 72.3751 32.6107C72.7357 32.974 73.1925 33.1557 73.7455 33.1557ZM82.4671 33.9972C82.2908 34.1394 82.0745 34.246 81.818 34.3172C81.5695 34.3882 81.3051 34.4238 81.0246 34.4238C80.3193 34.4238 79.7744 34.2421 79.3897 33.8787C79.0051 33.5152 78.8127 32.9859 78.8127 32.2906V29.245H77.7549V28.0599H78.8127V26.6141H80.3154V28.0599H82.0343V29.245H80.3154V32.2552C80.3154 32.5633 80.3915 32.8002 80.5438 32.9662C80.696 33.1242 80.9164 33.2032 81.2049 33.2032C81.5415 33.2032 81.8219 33.1163 82.0464 32.9425L82.4671 33.9972ZM86.3769 34.4238C85.7278 34.4238 85.1427 34.2856 84.6218 34.009C84.101 33.7325 83.6922 33.3493 83.3957 32.8595C83.1073 32.3618 82.963 31.8008 82.963 31.1767C82.963 30.5525 83.1073 29.9956 83.3957 29.5057C83.6922 29.0159 84.101 28.6327 84.6218 28.3562C85.1427 28.0797 85.7278 27.9414 86.3769 27.9414C87.034 27.9414 87.6231 28.0797 88.1442 28.3562C88.6652 28.6327 89.07 29.0159 89.3585 29.5057C89.6548 29.9956 89.8029 30.5525 89.8029 31.1767C89.8029 31.8008 89.6548 32.3618 89.3585 32.8595C89.07 33.3493 88.6652 33.7325 88.1442 34.009C87.6231 34.2856 87.034 34.4238 86.3769 34.4238ZM86.3769 33.1557C86.9298 33.1557 87.3863 32.974 87.7471 32.6107C88.108 32.2473 88.288 31.7692 88.288 31.1767C88.288 30.5841 88.108 30.1062 87.7471 29.7427C87.3863 29.3793 86.9298 29.1976 86.3769 29.1976C85.824 29.1976 85.3672 29.3793 85.0066 29.7427C84.6539 30.1062 84.4776 30.5841 84.4776 31.1767C84.4776 31.7692 84.6539 32.2473 85.0066 32.6107C85.3672 32.974 85.824 33.1557 86.3769 33.1557ZM97.611 28.0125V33.3809C97.611 35.6089 96.4569 36.7229 94.1488 36.7229C93.5321 36.7229 92.9465 36.6438 92.3935 36.4858C91.8406 36.3357 91.3842 36.1145 91.0233 35.8222L91.6968 34.7082C91.9767 34.9373 92.3298 35.1191 92.7544 35.2533C93.1867 35.3956 93.6243 35.4667 94.0643 35.4667C94.7697 35.4667 95.2864 35.3087 95.6154 34.9927C95.9436 34.6767 96.1081 34.1947 96.1081 33.5468V33.215C95.8514 33.4915 95.5397 33.7009 95.1702 33.8431C94.8016 33.9854 94.3976 34.0564 93.9567 34.0564C93.3478 34.0564 92.7949 33.93 92.2979 33.6772C91.8087 33.4165 91.4203 33.0531 91.1318 32.587C90.851 32.1208 90.7107 31.5875 90.7107 30.9871C90.7107 30.3866 90.851 29.8573 91.1318 29.3991C91.4203 28.933 91.8087 28.5735 92.2979 28.3206C92.7949 28.0679 93.3478 27.9414 93.9567 27.9414C94.4209 27.9414 94.842 28.0165 95.2184 28.1666C95.6034 28.3167 95.9238 28.5458 96.1804 28.8539V28.0125H97.611ZM94.1849 32.8002C94.7542 32.8002 95.2184 32.6343 95.5793 32.3025C95.9479 31.9628 96.1322 31.5243 96.1322 30.9871C96.1322 30.4577 95.9479 30.0271 95.5793 29.6953C95.2184 29.3635 94.7542 29.1976 94.1849 29.1976C93.6079 29.1976 93.1351 29.3635 92.7664 29.6953C92.4056 30.0271 92.2256 30.4577 92.2256 30.9871C92.2256 31.5243 92.4056 31.9628 92.7664 32.3025C93.1351 32.6343 93.6079 32.8002 94.1849 32.8002ZM101.017 28.9369C101.45 28.2732 102.211 27.9414 103.301 27.9414V29.3516C103.173 29.3279 103.057 29.3161 102.952 29.3161C102.368 29.3161 101.91 29.486 101.582 29.8257C101.253 30.1576 101.089 30.6395 101.089 31.2715V34.3409H99.5866V28.0125H101.017V28.9369ZM106.992 27.9414C107.938 27.9414 108.66 28.1666 109.156 28.6169C109.661 29.0593 109.914 29.7309 109.914 30.6316V34.3409H108.495V33.5706C108.311 33.847 108.047 34.0604 107.702 34.2105C107.365 34.3527 106.956 34.4238 106.476 34.4238C105.995 34.4238 105.574 34.3449 105.213 34.1868C104.853 34.0209 104.572 33.7958 104.372 33.5113C104.18 33.219 104.083 32.8911 104.083 32.5277C104.083 31.9588 104.296 31.5046 104.721 31.1649C105.154 30.8172 105.831 30.6434 106.752 30.6434H108.411V30.5486C108.411 30.1062 108.275 29.7664 108.003 29.5294C107.737 29.2924 107.341 29.1739 106.812 29.1739C106.452 29.1739 106.095 29.2292 105.742 29.3398C105.397 29.4504 105.105 29.6045 104.865 29.802L104.276 28.7236C104.612 28.4707 105.017 28.2772 105.49 28.1428C105.962 28.0086 106.464 27.9414 106.992 27.9414ZM106.788 33.3454C107.165 33.3454 107.497 33.2625 107.786 33.0966C108.083 32.9227 108.291 32.6778 108.411 32.3618V31.627H106.861C105.995 31.627 105.562 31.9075 105.562 32.4684C105.562 32.7371 105.67 32.9504 105.887 33.1084C106.103 33.2664 106.403 33.3454 106.788 33.3454ZM115.4 27.9414C116.025 27.9414 116.582 28.0758 117.071 28.3443C117.568 28.613 117.957 28.9921 118.237 29.482C118.518 29.9719 118.658 30.5367 118.658 31.1767C118.658 31.8166 118.518 32.3855 118.237 32.8832C117.957 33.373 117.568 33.7523 117.071 34.0209C116.582 34.2895 116.025 34.4238 115.4 34.4238C114.534 34.4238 113.85 34.1394 113.345 33.5706V36.6399H111.842V28.0125H113.273V28.8421C113.521 28.5419 113.826 28.3167 114.186 28.1666C114.555 28.0165 114.96 27.9414 115.4 27.9414ZM115.232 33.1557C115.785 33.1557 116.238 32.974 116.59 32.6107C116.951 32.2473 117.131 31.7692 117.131 31.1767C117.131 30.5841 116.951 30.1062 116.59 29.7427C116.238 29.3793 115.785 29.1976 115.232 29.1976C114.871 29.1976 114.546 29.2806 114.258 29.4465C113.969 29.6045 113.741 29.8336 113.573 30.1338C113.404 30.434 113.321 30.7817 113.321 31.1767C113.321 31.5717 113.404 31.9193 113.573 32.2196C113.741 32.5198 113.969 32.7529 114.258 32.9188C114.546 33.0768 114.871 33.1557 115.232 33.1557ZM123.726 27.9414C124.535 27.9414 125.184 28.1745 125.673 28.6406C126.161 29.1068 126.406 29.7981 126.406 30.7145V34.3409H124.904V30.9041C124.904 30.3511 124.771 29.9363 124.507 29.6598C124.242 29.3753 123.866 29.2332 123.377 29.2332C122.824 29.2332 122.387 29.3991 122.067 29.7309C121.746 30.0548 121.585 30.5249 121.585 31.1411V34.3409H120.083V25.5475H121.585V28.7473C121.834 28.4865 122.138 28.289 122.499 28.1547C122.868 28.0125 123.277 27.9414 123.726 27.9414ZM134.205 28.0125L131.2 34.8505C130.92 35.5378 130.579 36.0197 130.178 36.2962C129.778 36.5807 129.293 36.7229 128.723 36.7229C128.403 36.7229 128.087 36.6715 127.774 36.5688C127.462 36.4661 127.205 36.3239 127.004 36.1422L127.605 35.0519C127.75 35.1863 127.918 35.2929 128.111 35.3719C128.311 35.4509 128.512 35.4904 128.711 35.4904C128.976 35.4904 129.193 35.4232 129.361 35.2889C129.537 35.1546 129.697 34.9294 129.841 34.6134L129.95 34.3645L127.149 28.0125H128.711L130.731 32.6936L132.763 28.0125H134.205ZM141.219 34.4594C140.571 34.4594 139.941 34.3685 139.332 34.1868C138.731 34.0051 138.254 33.7641 137.902 33.4639L138.443 32.267C138.787 32.5356 139.208 32.7568 139.705 32.9306C140.21 33.0966 140.714 33.1795 141.219 33.1795C141.844 33.1795 142.31 33.0807 142.614 32.8832C142.926 32.6857 143.083 32.425 143.083 32.101C143.083 31.8641 142.994 31.6705 142.819 31.5204C142.65 31.3624 142.434 31.2399 142.169 31.153C141.905 31.066 141.544 30.9673 141.087 30.8568C140.446 30.7066 139.925 30.5565 139.524 30.4064C139.132 30.2563 138.791 30.0232 138.503 29.7072C138.222 29.3833 138.082 28.9488 138.082 28.4036C138.082 27.9453 138.207 27.5306 138.455 27.1593C138.711 26.78 139.092 26.4798 139.597 26.2586C140.109 26.0373 140.734 25.9268 141.472 25.9268C141.985 25.9268 142.49 25.99 142.986 26.1164C143.483 26.2428 143.912 26.4245 144.272 26.6615L143.78 27.8585C143.411 27.6451 143.027 27.4832 142.626 27.3726C142.225 27.2619 141.837 27.2067 141.459 27.2067C140.843 27.2067 140.382 27.3094 140.077 27.5148C139.781 27.7202 139.633 27.9928 139.633 28.3325C139.633 28.5695 139.717 28.7631 139.885 28.9132C140.062 29.0633 140.282 29.1818 140.547 29.2687C140.811 29.3556 141.171 29.4544 141.628 29.565C142.254 29.7072 142.766 29.8573 143.166 30.0153C143.568 30.1655 143.908 30.3985 144.189 30.7145C144.477 31.0306 144.621 31.4571 144.621 31.9944C144.621 32.4526 144.493 32.8674 144.237 33.2387C143.988 33.6101 143.607 33.9063 143.095 34.1276C142.582 34.3488 141.956 34.4594 141.219 34.4594ZM148.972 34.4238C148.306 34.4238 147.71 34.2856 147.181 34.009C146.652 33.7325 146.239 33.3493 145.942 32.8595C145.646 32.3618 145.498 31.8008 145.498 31.1767C145.498 30.5525 145.646 29.9956 145.942 29.5057C146.239 29.0159 146.648 28.6327 147.169 28.3562C147.697 28.0797 148.299 27.9414 148.972 27.9414C149.605 27.9414 150.158 28.0679 150.631 28.3206C151.111 28.5735 151.472 28.9369 151.713 29.4109L150.559 30.0745C150.374 29.7823 150.142 29.565 149.861 29.4228C149.589 29.2727 149.288 29.1976 148.96 29.1976C148.398 29.1976 147.934 29.3793 147.566 29.7427C147.197 30.0983 147.013 30.5762 147.013 31.1767C147.013 31.7771 147.193 32.2591 147.554 32.6225C147.922 32.978 148.391 33.1557 148.96 33.1557C149.288 33.1557 149.589 33.0847 149.861 32.9425C150.142 32.7924 150.374 32.5712 150.559 32.2788L151.713 32.9425C151.465 33.4165 151.099 33.7839 150.619 34.0446C150.146 34.2974 149.596 34.4238 148.972 34.4238ZM156.595 27.9414C157.405 27.9414 158.054 28.1745 158.542 28.6406C159.031 29.1068 159.276 29.7981 159.276 30.7145V34.3409H157.773V30.9041C157.773 30.3511 157.641 29.9363 157.376 29.6598C157.112 29.3753 156.735 29.2332 156.246 29.2332C155.693 29.2332 155.257 29.3991 154.936 29.7309C154.616 30.0548 154.456 30.5249 154.456 31.1411V34.3409H152.953V25.5475H154.456V28.7473C154.704 28.4865 155.009 28.289 155.369 28.1547C155.738 28.0125 156.146 27.9414 156.595 27.9414ZM164.126 34.4238C163.476 34.4238 162.892 34.2856 162.37 34.009C161.849 33.7325 161.441 33.3493 161.145 32.8595C160.856 32.3618 160.712 31.8008 160.712 31.1767C160.712 30.5525 160.856 29.9956 161.145 29.5057C161.441 29.0159 161.849 28.6327 162.37 28.3562C162.892 28.0797 163.476 27.9414 164.126 27.9414C164.783 27.9414 165.372 28.0797 165.893 28.3562C166.414 28.6327 166.819 29.0159 167.107 29.5057C167.404 29.9956 167.552 30.5525 167.552 31.1767C167.552 31.8008 167.404 32.3618 167.107 32.8595C166.819 33.3493 166.414 33.7325 165.893 34.009C165.372 34.2856 164.783 34.4238 164.126 34.4238ZM164.126 33.1557C164.679 33.1557 165.135 32.974 165.496 32.6107C165.857 32.2473 166.037 31.7692 166.037 31.1767C166.037 30.5841 165.857 30.1062 165.496 29.7427C165.135 29.3793 164.679 29.1976 164.126 29.1976C163.573 29.1976 163.116 29.3793 162.755 29.7427C162.402 30.1062 162.227 30.5841 162.227 31.1767C162.227 31.7692 162.402 32.2473 162.755 32.6107C163.116 32.974 163.573 33.1557 164.126 33.1557ZM171.873 34.4238C171.224 34.4238 170.639 34.2856 170.118 34.009C169.597 33.7325 169.189 33.3493 168.893 32.8595C168.604 32.3618 168.459 31.8008 168.459 31.1767C168.459 30.5525 168.604 29.9956 168.893 29.5057C169.189 29.0159 169.597 28.6327 170.118 28.3562C170.639 28.0797 171.224 27.9414 171.873 27.9414C172.531 27.9414 173.12 28.0797 173.641 28.3562C174.162 28.6327 174.567 29.0159 174.855 29.5057C175.151 29.9956 175.299 30.5525 175.299 31.1767C175.299 31.8008 175.151 32.3618 174.855 32.8595C174.567 33.3493 174.162 33.7325 173.641 34.009C173.12 34.2856 172.531 34.4238 171.873 34.4238ZM171.873 33.1557C172.426 33.1557 172.884 32.974 173.244 32.6107C173.605 32.2473 173.785 31.7692 173.785 31.1767C173.785 30.5841 173.605 30.1062 173.244 29.7427C172.884 29.3793 172.426 29.1976 171.873 29.1976C171.321 29.1976 170.864 29.3793 170.503 29.7427C170.151 30.1062 169.974 30.5841 169.974 31.1767C169.974 31.7692 170.151 32.2473 170.503 32.6107C170.864 32.974 171.321 33.1557 171.873 33.1557ZM176.736 25.5475H178.239V34.3409H176.736V25.5475Z" fill="#EEECEC"/>
<defs>
<linearGradient id="paint0_linear_15_306" x1="11.1201" y1="11.0359" x2="34.0622" y2="34.3072" gradientUnits="userSpaceOnUse">
<stop stop-color="#D41C3D"/>
<stop offset="1" stop-color="#861B83"/>
</linearGradient>
<linearGradient id="paint1_linear_15_306" x1="0.902344" y1="0.951294" x2="44.0005" y2="44.6558" gradientUnits="userSpaceOnUse">
<stop stop-color="#D41C3D"/>
<stop offset="1" stop-color="#861B83"/>
</linearGradient>
<linearGradient id="paint2_linear_15_306" x1="30.6406" y1="1.20251" x2="44.1723" y2="14.9285" gradientUnits="userSpaceOnUse">
<stop stop-color="#D41C3D"/>
<stop offset="1" stop-color="#861B83"/>
</linearGradient>
</defs>
</svg>
